<svg width="16" height="18" viewBox="0 0 16 18" fill="none" xmlns="http://www.w3.org/2000/svg">
<path d="M14 6H13V4.28571C13 1.92 10.76 0 8 0C5.24 0 3 1.92 3 4.28571V6H2C0.9 6 0 6.77143 0 7.71429V16.2857C0 17.2286 0.9 18 2 18H14C15.1 18 16 17.2286 16 16.2857V7.71429C16 6.77143 15.1 6 14 6ZM5 4.28571C5 2.86286 6.34 1.71429 8 1.71429C9.66 1.71429 11 2.86286 11 4.28571V6H5V4.28571ZM14 16.2857H2V7.71429H14V16.2857ZM8 13.7143C9.1 13.7143 10 12.9429 10 12C10 11.0571 9.1 10.2857 8 10.2857C6.9 10.2857 6 11.0571 6 12C6 12.9429 6.9 13.7143 8 13.7143Z" fill="#868686"/>
</svg>
